# xmcd
#
# Track frame offsets: 
#        150
#        21562
#        42675
#        64030
#        85960
#        105675
#        124275
#        142570
#        159600
#        179235
#        198825
#        221685
#
# Disc length: 3309 seconds
#
# Revision: 4
# Processed by: cddbd v1.5.2PL0 Copyright (c) Steve Scherf et al.
# Submitted via: ExactAudioCopyFreeDBPlugin 1.0
#
DISCID=b40ceb0c
DTITLE=박정현 2집 - a second helping
DYEAR=1999
DGENRE=R&B
TTITLE0=몽중인
TTITLE1=눈에뭐가
TTITLE2=편지할께요
TTITLE3=전야제
TTITLE4=우리가 보여
TTITLE5=고백
TTITLE6=친구처럼
TTITLE7=이별 후 시작
TTITLE8=다신 없겠죠
TTITLE9=이젠 돌려줄께
TTITLE10=바람에 지는 꽃
TTITLE11=Ordinary
EXTD=
EXTT0=
EXTT1=
EXTT2=
EXTT3=
EXTT4=
EXTT5=
EXTT6=
EXTT7=
EXTT8=
EXTT9=
EXTT10=
EXTT11=
PLAYORDER=
